<mxfile host="app.diagrams.net" modified="2021-01-08T11:03:48.976Z" agent="5.0 (Windows NT 10.0; Win64; x64) AppleWebKit/537.36 (KHTML, like Gecko) Chrome/87.0.4280.141 Safari/537.36" etag="JMQmW5eDkVJM0eYXaLy-" version="14.1.8" type="github">
  <diagram id="Q2cVbZSzlwSrwGCgLGGO" name="Page-1">
    <mxGraphModel dx="1240" dy="643" grid="1" gridSize="10" guides="1" tooltips="1" connect="1" arrows="1" fold="1" page="1" pageScale="1" pageWidth="3300" pageHeight="4681" math="0" shadow="0">
      <root>
        <mxCell id="0" />
        <mxCell id="1" parent="0" />
        <mxCell id="BgjvEXPZa1qRqGgK1NTP-1" value="&lt;u&gt;ID.CITTA&#39;&lt;/u&gt;" style="ellipse;whiteSpace=wrap;html=1;" vertex="1" parent="1">
          <mxGeometry x="1060" y="520" width="100" height="70" as="geometry" />
        </mxCell>
        <mxCell id="BgjvEXPZa1qRqGgK1NTP-2" value="&lt;u&gt;ID.NUM.RIV&lt;/u&gt;" style="ellipse;whiteSpace=wrap;html=1;" vertex="1" parent="1">
          <mxGeometry x="410" y="720" width="100" height="70" as="geometry" />
        </mxCell>
        <mxCell id="BgjvEXPZa1qRqGgK1NTP-3" value="ANNOAPPAR" style="ellipse;whiteSpace=wrap;html=1;" vertex="1" parent="1">
          <mxGeometry x="920" y="720" width="100" height="70" as="geometry" />
        </mxCell>
        <mxCell id="BgjvEXPZa1qRqGgK1NTP-4" value="NOMEPERS" style="ellipse;whiteSpace=wrap;html=1;" vertex="1" parent="1">
          <mxGeometry x="680" y="720" width="100" height="70" as="geometry" />
        </mxCell>
        <mxCell id="BgjvEXPZa1qRqGgK1NTP-5" value="NOME CITTA&#39;" style="ellipse;whiteSpace=wrap;html=1;" vertex="1" parent="1">
          <mxGeometry x="1060" y="340" width="100" height="70" as="geometry" />
        </mxCell>
        <mxCell id="BgjvEXPZa1qRqGgK1NTP-6" value="&lt;u&gt;ID. STORIE&lt;/u&gt;" style="ellipse;whiteSpace=wrap;html=1;" vertex="1" parent="1">
          <mxGeometry x="660" y="270" width="100" height="70" as="geometry" />
        </mxCell>
        <mxCell id="BgjvEXPZa1qRqGgK1NTP-7" value="POPOLAZIONE" style="ellipse;whiteSpace=wrap;html=1;" vertex="1" parent="1">
          <mxGeometry x="1060" y="430" width="100" height="70" as="geometry" />
        </mxCell>
        <mxCell id="BgjvEXPZa1qRqGgK1NTP-8" value="&lt;u&gt;ID PERSON.&lt;/u&gt;" style="ellipse;whiteSpace=wrap;html=1;" vertex="1" parent="1">
          <mxGeometry x="800" y="720" width="100" height="70" as="geometry" />
        </mxCell>
        <mxCell id="BgjvEXPZa1qRqGgK1NTP-9" value="NUM. RIVISTE" style="rounded=0;whiteSpace=wrap;html=1;" vertex="1" parent="1">
          <mxGeometry x="520" y="625" width="120" height="60" as="geometry" />
        </mxCell>
        <mxCell id="BgjvEXPZa1qRqGgK1NTP-10" value="RIVISTE" style="rounded=0;whiteSpace=wrap;html=1;" vertex="1" parent="1">
          <mxGeometry x="390" y="390" width="120" height="60" as="geometry" />
        </mxCell>
        <mxCell id="BgjvEXPZa1qRqGgK1NTP-11" value="STORIE" style="rounded=0;whiteSpace=wrap;html=1;" vertex="1" parent="1">
          <mxGeometry x="650" y="390" width="120" height="60" as="geometry" />
        </mxCell>
        <mxCell id="BgjvEXPZa1qRqGgK1NTP-12" value="PERSONAGGIO" style="rounded=0;whiteSpace=wrap;html=1;" vertex="1" parent="1">
          <mxGeometry x="760" y="630" width="120" height="60" as="geometry" />
        </mxCell>
        <mxCell id="BgjvEXPZa1qRqGgK1NTP-13" value="CITTA&#39;" style="rounded=0;whiteSpace=wrap;html=1;" vertex="1" parent="1">
          <mxGeometry x="890" y="390" width="120" height="60" as="geometry" />
        </mxCell>
        <mxCell id="BgjvEXPZa1qRqGgK1NTP-17" value="PUBBL." style="rhombus;whiteSpace=wrap;html=1;" vertex="1" parent="1">
          <mxGeometry x="540" y="490" width="80" height="80" as="geometry" />
        </mxCell>
        <mxCell id="BgjvEXPZa1qRqGgK1NTP-18" value="TRAMA" style="rhombus;whiteSpace=wrap;html=1;" vertex="1" parent="1">
          <mxGeometry x="780" y="495" width="80" height="80" as="geometry" />
        </mxCell>
        <mxCell id="BgjvEXPZa1qRqGgK1NTP-19" value="" style="endArrow=none;html=1;exitX=1;exitY=1;exitDx=0;exitDy=0;entryX=0;entryY=0.5;entryDx=0;entryDy=0;" edge="1" parent="1" source="BgjvEXPZa1qRqGgK1NTP-10" target="BgjvEXPZa1qRqGgK1NTP-17">
          <mxGeometry width="50" height="50" relative="1" as="geometry">
            <mxPoint x="930" y="630" as="sourcePoint" />
            <mxPoint x="980" y="580" as="targetPoint" />
          </mxGeometry>
        </mxCell>
        <mxCell id="BgjvEXPZa1qRqGgK1NTP-20" value="" style="endArrow=none;html=1;entryX=0;entryY=1;entryDx=0;entryDy=0;exitX=1;exitY=0.5;exitDx=0;exitDy=0;" edge="1" parent="1" source="BgjvEXPZa1qRqGgK1NTP-17" target="BgjvEXPZa1qRqGgK1NTP-11">
          <mxGeometry width="50" height="50" relative="1" as="geometry">
            <mxPoint x="930" y="630" as="sourcePoint" />
            <mxPoint x="980" y="580" as="targetPoint" />
          </mxGeometry>
        </mxCell>
        <mxCell id="BgjvEXPZa1qRqGgK1NTP-21" value="" style="endArrow=none;html=1;exitX=0.5;exitY=1;exitDx=0;exitDy=0;entryX=0.5;entryY=0;entryDx=0;entryDy=0;" edge="1" parent="1" source="BgjvEXPZa1qRqGgK1NTP-17" target="BgjvEXPZa1qRqGgK1NTP-9">
          <mxGeometry width="50" height="50" relative="1" as="geometry">
            <mxPoint x="930" y="630" as="sourcePoint" />
            <mxPoint x="980" y="580" as="targetPoint" />
          </mxGeometry>
        </mxCell>
        <mxCell id="BgjvEXPZa1qRqGgK1NTP-22" value="" style="endArrow=none;html=1;entryX=1;entryY=1;entryDx=0;entryDy=0;exitX=0;exitY=0.5;exitDx=0;exitDy=0;" edge="1" parent="1" source="BgjvEXPZa1qRqGgK1NTP-18" target="BgjvEXPZa1qRqGgK1NTP-11">
          <mxGeometry width="50" height="50" relative="1" as="geometry">
            <mxPoint x="930" y="630" as="sourcePoint" />
            <mxPoint x="980" y="580" as="targetPoint" />
          </mxGeometry>
        </mxCell>
        <mxCell id="BgjvEXPZa1qRqGgK1NTP-23" value="" style="endArrow=none;html=1;entryX=0;entryY=1;entryDx=0;entryDy=0;exitX=1;exitY=0.5;exitDx=0;exitDy=0;" edge="1" parent="1" source="BgjvEXPZa1qRqGgK1NTP-18" target="BgjvEXPZa1qRqGgK1NTP-13">
          <mxGeometry width="50" height="50" relative="1" as="geometry">
            <mxPoint x="930" y="630" as="sourcePoint" />
            <mxPoint x="980" y="580" as="targetPoint" />
          </mxGeometry>
        </mxCell>
        <mxCell id="BgjvEXPZa1qRqGgK1NTP-24" value="" style="endArrow=none;html=1;exitX=0.5;exitY=0;exitDx=0;exitDy=0;entryX=0.5;entryY=1;entryDx=0;entryDy=0;" edge="1" parent="1" source="BgjvEXPZa1qRqGgK1NTP-12" target="BgjvEXPZa1qRqGgK1NTP-18">
          <mxGeometry width="50" height="50" relative="1" as="geometry">
            <mxPoint x="930" y="630" as="sourcePoint" />
            <mxPoint x="980" y="580" as="targetPoint" />
          </mxGeometry>
        </mxCell>
        <mxCell id="BgjvEXPZa1qRqGgK1NTP-26" value="" style="endArrow=none;html=1;entryX=1;entryY=1;entryDx=0;entryDy=0;exitX=0;exitY=0.5;exitDx=0;exitDy=0;" edge="1" parent="1" source="BgjvEXPZa1qRqGgK1NTP-7" target="BgjvEXPZa1qRqGgK1NTP-13">
          <mxGeometry width="50" height="50" relative="1" as="geometry">
            <mxPoint x="930" y="630" as="sourcePoint" />
            <mxPoint x="980" y="580" as="targetPoint" />
          </mxGeometry>
        </mxCell>
        <mxCell id="BgjvEXPZa1qRqGgK1NTP-27" value="" style="endArrow=none;html=1;entryX=1;entryY=0;entryDx=0;entryDy=0;exitX=0;exitY=0.5;exitDx=0;exitDy=0;" edge="1" parent="1" source="BgjvEXPZa1qRqGgK1NTP-5" target="BgjvEXPZa1qRqGgK1NTP-13">
          <mxGeometry width="50" height="50" relative="1" as="geometry">
            <mxPoint x="930" y="630" as="sourcePoint" />
            <mxPoint x="980" y="580" as="targetPoint" />
          </mxGeometry>
        </mxCell>
        <mxCell id="BgjvEXPZa1qRqGgK1NTP-28" value="" style="endArrow=none;html=1;exitX=1;exitY=1;exitDx=0;exitDy=0;entryX=0.5;entryY=0;entryDx=0;entryDy=0;" edge="1" parent="1" source="BgjvEXPZa1qRqGgK1NTP-12" target="BgjvEXPZa1qRqGgK1NTP-3">
          <mxGeometry width="50" height="50" relative="1" as="geometry">
            <mxPoint x="930" y="630" as="sourcePoint" />
            <mxPoint x="980" y="580" as="targetPoint" />
          </mxGeometry>
        </mxCell>
        <mxCell id="BgjvEXPZa1qRqGgK1NTP-29" value="" style="endArrow=none;html=1;exitX=0.5;exitY=0;exitDx=0;exitDy=0;entryX=0;entryY=1;entryDx=0;entryDy=0;" edge="1" parent="1" source="BgjvEXPZa1qRqGgK1NTP-4" target="BgjvEXPZa1qRqGgK1NTP-12">
          <mxGeometry width="50" height="50" relative="1" as="geometry">
            <mxPoint x="930" y="630" as="sourcePoint" />
            <mxPoint x="980" y="580" as="targetPoint" />
          </mxGeometry>
        </mxCell>
        <mxCell id="BgjvEXPZa1qRqGgK1NTP-30" value="" style="endArrow=none;html=1;entryX=0.5;entryY=1;entryDx=0;entryDy=0;exitX=0;exitY=0;exitDx=0;exitDy=0;" edge="1" parent="1" source="BgjvEXPZa1qRqGgK1NTP-8" target="BgjvEXPZa1qRqGgK1NTP-12">
          <mxGeometry width="50" height="50" relative="1" as="geometry">
            <mxPoint x="930" y="630" as="sourcePoint" />
            <mxPoint x="980" y="580" as="targetPoint" />
          </mxGeometry>
        </mxCell>
        <mxCell id="BgjvEXPZa1qRqGgK1NTP-31" value="" style="endArrow=none;html=1;entryX=1;entryY=1;entryDx=0;entryDy=0;exitX=0;exitY=0;exitDx=0;exitDy=0;" edge="1" parent="1" source="BgjvEXPZa1qRqGgK1NTP-1" target="BgjvEXPZa1qRqGgK1NTP-13">
          <mxGeometry width="50" height="50" relative="1" as="geometry">
            <mxPoint x="930" y="630" as="sourcePoint" />
            <mxPoint x="980" y="580" as="targetPoint" />
          </mxGeometry>
        </mxCell>
        <mxCell id="BgjvEXPZa1qRqGgK1NTP-32" value="" style="endArrow=none;html=1;entryX=0.5;entryY=1;entryDx=0;entryDy=0;exitX=0.5;exitY=0;exitDx=0;exitDy=0;" edge="1" parent="1" source="BgjvEXPZa1qRqGgK1NTP-11" target="BgjvEXPZa1qRqGgK1NTP-6">
          <mxGeometry width="50" height="50" relative="1" as="geometry">
            <mxPoint x="930" y="490" as="sourcePoint" />
            <mxPoint x="980" y="440" as="targetPoint" />
          </mxGeometry>
        </mxCell>
        <mxCell id="BgjvEXPZa1qRqGgK1NTP-33" value="&lt;u&gt;ID RIVISTE&lt;/u&gt;" style="ellipse;whiteSpace=wrap;html=1;" vertex="1" parent="1">
          <mxGeometry x="340" y="270" width="100" height="70" as="geometry" />
        </mxCell>
        <mxCell id="BgjvEXPZa1qRqGgK1NTP-34" value="NOMERIV" style="ellipse;whiteSpace=wrap;html=1;" vertex="1" parent="1">
          <mxGeometry x="460" y="270" width="100" height="70" as="geometry" />
        </mxCell>
        <mxCell id="BgjvEXPZa1qRqGgK1NTP-35" value="DATA USC." style="ellipse;whiteSpace=wrap;html=1;" vertex="1" parent="1">
          <mxGeometry x="530" y="720" width="100" height="70" as="geometry" />
        </mxCell>
        <mxCell id="BgjvEXPZa1qRqGgK1NTP-36" value="" style="endArrow=none;html=1;entryX=0.5;entryY=1;entryDx=0;entryDy=0;exitX=0;exitY=0;exitDx=0;exitDy=0;" edge="1" parent="1" source="BgjvEXPZa1qRqGgK1NTP-10" target="BgjvEXPZa1qRqGgK1NTP-33">
          <mxGeometry width="50" height="50" relative="1" as="geometry">
            <mxPoint x="840" y="490" as="sourcePoint" />
            <mxPoint x="890" y="440" as="targetPoint" />
          </mxGeometry>
        </mxCell>
        <mxCell id="BgjvEXPZa1qRqGgK1NTP-37" value="" style="endArrow=none;html=1;entryX=0.5;entryY=1;entryDx=0;entryDy=0;exitX=1;exitY=0;exitDx=0;exitDy=0;" edge="1" parent="1" source="BgjvEXPZa1qRqGgK1NTP-10" target="BgjvEXPZa1qRqGgK1NTP-34">
          <mxGeometry width="50" height="50" relative="1" as="geometry">
            <mxPoint x="840" y="490" as="sourcePoint" />
            <mxPoint x="890" y="440" as="targetPoint" />
          </mxGeometry>
        </mxCell>
        <mxCell id="BgjvEXPZa1qRqGgK1NTP-38" value="" style="endArrow=none;html=1;entryX=0.5;entryY=1;entryDx=0;entryDy=0;exitX=0.5;exitY=0;exitDx=0;exitDy=0;" edge="1" parent="1" source="BgjvEXPZa1qRqGgK1NTP-35" target="BgjvEXPZa1qRqGgK1NTP-9">
          <mxGeometry width="50" height="50" relative="1" as="geometry">
            <mxPoint x="840" y="630" as="sourcePoint" />
            <mxPoint x="890" y="580" as="targetPoint" />
          </mxGeometry>
        </mxCell>
        <mxCell id="BgjvEXPZa1qRqGgK1NTP-39" value="(1,N)" style="text;html=1;strokeColor=none;fillColor=none;align=center;verticalAlign=middle;whiteSpace=wrap;rounded=0;" vertex="1" parent="1">
          <mxGeometry x="770" y="460" width="40" height="20" as="geometry" />
        </mxCell>
        <mxCell id="BgjvEXPZa1qRqGgK1NTP-40" value="(1,N)" style="text;html=1;strokeColor=none;fillColor=none;align=center;verticalAlign=middle;whiteSpace=wrap;rounded=0;" vertex="1" parent="1">
          <mxGeometry x="780" y="590" width="40" height="20" as="geometry" />
        </mxCell>
        <mxCell id="BgjvEXPZa1qRqGgK1NTP-41" value="(1,N)" style="text;html=1;strokeColor=none;fillColor=none;align=center;verticalAlign=middle;whiteSpace=wrap;rounded=0;" vertex="1" parent="1">
          <mxGeometry x="840" y="460" width="40" height="20" as="geometry" />
        </mxCell>
        <mxCell id="BgjvEXPZa1qRqGgK1NTP-42" value="(1,1)" style="text;html=1;strokeColor=none;fillColor=none;align=center;verticalAlign=middle;whiteSpace=wrap;rounded=0;" vertex="1" parent="1">
          <mxGeometry x="820" y="590" width="40" height="20" as="geometry" />
        </mxCell>
        <mxCell id="BgjvEXPZa1qRqGgK1NTP-44" value="(1,N)" style="text;html=1;strokeColor=none;fillColor=none;align=center;verticalAlign=middle;whiteSpace=wrap;rounded=0;" vertex="1" parent="1">
          <mxGeometry x="520" y="470" width="40" height="20" as="geometry" />
        </mxCell>
        <mxCell id="BgjvEXPZa1qRqGgK1NTP-45" value="(1,N)" style="text;html=1;strokeColor=none;fillColor=none;align=center;verticalAlign=middle;whiteSpace=wrap;rounded=0;" vertex="1" parent="1">
          <mxGeometry x="600" y="470" width="40" height="20" as="geometry" />
        </mxCell>
        <mxCell id="BgjvEXPZa1qRqGgK1NTP-46" value="(1,N)" style="text;html=1;strokeColor=none;fillColor=none;align=center;verticalAlign=middle;whiteSpace=wrap;rounded=0;" vertex="1" parent="1">
          <mxGeometry x="580" y="590" width="40" height="20" as="geometry" />
        </mxCell>
        <mxCell id="BgjvEXPZa1qRqGgK1NTP-47" value="" style="endArrow=none;html=1;exitX=1;exitY=0;exitDx=0;exitDy=0;entryX=0;entryY=1;entryDx=0;entryDy=0;" edge="1" parent="1" source="BgjvEXPZa1qRqGgK1NTP-2" target="BgjvEXPZa1qRqGgK1NTP-9">
          <mxGeometry width="50" height="50" relative="1" as="geometry">
            <mxPoint x="840" y="570" as="sourcePoint" />
            <mxPoint x="890" y="520" as="targetPoint" />
          </mxGeometry>
        </mxCell>
      </root>
    </mxGraphModel>
  </diagram>
</mxfile>
